# xmcd
#
# Track frame offsets: 
#        150
#        14498
#        28161
#        44348
#        61887
#        73635
#        87591
#        105135
#        116476
#        133818
#        152487
#        165865
#        178933
#        194869
#        208339
#        223532
#
# Disc length: 3164 seconds
#
# Revision: 1
# Processed by: cddbd v1.5.2PL0 Copyright (c) Steve Scherf et al.
# Submitted via: ExactAudioCopyFreeDBPlugin 1.0
#
DISCID=e70c5a10
DTITLE=Fausto Papetti - Sax Greatest Hits. Part 1
DYEAR=2004
DGENRE=Instrumental
TTITLE0=Eternally
TTITLE1=Windmills of Your Mind
TTITLE2=Feelings
TTITLE3=Forever and Ever
TTITLE4=Strangers in the Night
TTITLE5=Adagio
TTITLE6=Without Your
TTITLE7=Smile
TTITLE8=La Mer (Beyond the See)
TTITLE9=A Blue Shadow
TTITLE10=Emmanuelle
TTITLE11=Samba Pa Ti
TTITLE12=Misty
TTITLE13=My Way
TTITLE14=What a Wonderful World
TTITLE15=Concerto D'Aranjues
EXTD=
EXTT0=
EXTT1=
EXTT2=
EXTT3=
EXTT4=
EXTT5=
EXTT6=
EXTT7=
EXTT8=
EXTT9=
EXTT10=
EXTT11=
EXTT12=
EXTT13=
EXTT14=
EXTT15=
PLAYORDER=
